# xmcd
# Copyright (C) 1995-1998 Ti Kan
#
# Track frame offsets:
#       150
#       30655
#       55005
#       83105
#       117548
#       150532
#       166980
#       201590
#       232415
#       262790
#       294307
#
# Disc length: 4319 seconds
#
# Revision: 0
# Processed by: cddbd v1.5.2PL0 Copyright (c) Steve Scherf et al.
# Submitted via: CD-Import v1.0
#
DISCID=9510dd0b
DTITLE=Various Artist - Techno Classics Vol.1 Cd1
DYEAR=1997
DGENRE=
TTITLE0=Loops And Tings
TTITLE1=Outside World
TTITLE2=The Finest 
TTITLE3=House Of House
TTITLE4=A New Dimension 
TTITLE5=Go
TTITLE6=Prayer Five (We Can Fly)
TTITLE7=The Age Of Love (Watch Out For Stella Club Mix)
TTITLE8=Lovewaves 
TTITLE9=Time Slip 
TTITLE10=Welcome Stranger 
EXTD=
EXTT0=
EXTT1=
EXTT2=
EXTT3=
EXTT4=
EXTT5=
EXTT6=
EXTT7=
EXTT8=
EXTT9=
EXTT10=
PLAYORDER=
